<?xml version="1.0" encoding="UTF-8" standalone="no"?>
<!DOCTYPE svg PUBLIC "-//W3C//DTD SVG 1.1//EN"
 "http://www.w3.org/Graphics/SVG/1.1/DTD/svg11.dtd">
<!-- Generated by graphviz version 2.40.1 (20161225.0304)
 -->
<!-- Title: dependencies Pages: 1 -->
<svg width="3963pt" height="211pt"
 viewBox="0.00 0.00 3963.00 211.00" xmlns="http://www.w3.org/2000/svg" xmlns:xlink="http://www.w3.org/1999/xlink">
<g id="graph0" class="graph" transform="scale(1 1) rotate(0) translate(4 207)">
<title>dependencies</title>
<polygon fill="#ffffff" stroke="transparent" points="-4,4 -4,-207 3959,-207 3959,4 -4,4"/>
<text text-anchor="start" x="1956.5091" y="-42.4" font-family="sans-serif" font-weight="bold" font-size="14.00" fill="#000000">Legend</text>
<polygon fill="#ffffb3" stroke="transparent" points="1743.5,-10 1743.5,-30 1763.5,-30 1763.5,-10 1743.5,-10"/>
<text text-anchor="start" x="1767.129" y="-15.4" font-family="sans-serif" font-size="14.00" fill="#000000"> &#160;Declarations</text>
<polygon fill="#8dd3c7" stroke="transparent" points="1856.5,-10 1856.5,-30 1876.5,-30 1876.5,-10 1856.5,-10"/>
<text text-anchor="start" x="1880.2251" y="-15.4" font-family="sans-serif" font-size="14.00" fill="#000000"> &#160;Module</text>
<polygon fill="#80b1d3" stroke="transparent" points="1942.5,-10 1942.5,-30 1962.5,-30 1962.5,-10 1942.5,-10"/>
<text text-anchor="start" x="1966.2812" y="-15.4" font-family="sans-serif" font-size="14.00" fill="#000000"> &#160;Bootstrap</text>
<polygon fill="#fdb462" stroke="transparent" points="2039.5,-10 2039.5,-30 2059.5,-30 2059.5,-10 2039.5,-10"/>
<text text-anchor="start" x="2063.1732" y="-15.4" font-family="sans-serif" font-size="14.00" fill="#000000"> &#160;Providers</text>
<polygon fill="#fb8072" stroke="transparent" points="2135.5,-10 2135.5,-30 2155.5,-30 2155.5,-10 2135.5,-10"/>
<text text-anchor="start" x="2159.2258" y="-15.4" font-family="sans-serif" font-size="14.00" fill="#000000"> &#160;Exports</text>
<g id="clust1" class="cluster">
<title>cluster_NgxAdminLteModule</title>
<polygon fill="none" stroke="#000000" stroke-dasharray="1,5" points="8,-70 8,-195 3947,-195 3947,-70 8,-70"/>
</g>
<g id="clust2" class="cluster">
<title>cluster_NgxAdminLteModule_declarations</title>
<polygon fill="none" stroke="#000000" points="1661,-78 1661,-130 3939,-130 3939,-78 1661,-78"/>
</g>
<g id="clust20" class="cluster">
<title>cluster_NgxAdminLteModule_providers</title>
<polygon fill="none" stroke="#000000" points="16,-78 16,-130 1653,-130 1653,-78 16,-78"/>
</g>
<!-- SafeHtmlPipe -->
<g id="node1" class="node">
<title>SafeHtmlPipe</title>
<polygon fill="#ffffb3" stroke="#000000" points="3931.0397,-122 3836.9603,-122 3836.9603,-86 3931.0397,-86 3931.0397,-122"/>
<text text-anchor="middle" x="3884" y="-99.8" font-family="Times,serif" font-size="14.00" fill="#000000">SafeHtmlPipe</text>
</g>
<!-- NgxAdminLteModule -->
<g id="node15" class="node">
<title>NgxAdminLteModule</title>
<polygon fill="#8dd3c7" stroke="#000000" points="2087.7021,-187 2084.7021,-191 2063.7021,-191 2060.7021,-187 1946.2979,-187 1946.2979,-151 2087.7021,-151 2087.7021,-187"/>
<text text-anchor="middle" x="2017" y="-164.8" font-family="Times,serif" font-size="14.00" fill="#000000">NgxAdminLteModule</text>
</g>
<!-- SafeHtmlPipe&#45;&gt;NgxAdminLteModule -->
<g id="edge1" class="edge">
<title>SafeHtmlPipe&#45;&gt;NgxAdminLteModule</title>
<path fill="none" stroke="#000000" d="M3884,-122.1532C3884,-145.7566 3884,-184 3884,-184 3884,-184 2097.6261,-184 2097.6261,-184"/>
<polygon fill="#000000" stroke="#000000" points="2097.6262,-180.5001 2087.6261,-184 2097.6261,-187.5001 2097.6262,-180.5001"/>
</g>
<!-- BreadcrumbComponent -->
<g id="node2" class="node">
<title>BreadcrumbComponent</title>
<polygon fill="#ffffb3" stroke="#000000" points="3818.0253,-122 3667.9747,-122 3667.9747,-86 3818.0253,-86 3818.0253,-122"/>
<text text-anchor="middle" x="3743" y="-99.8" font-family="Times,serif" font-size="14.00" fill="#000000">BreadcrumbComponent</text>
</g>
<!-- BreadcrumbComponent&#45;&gt;NgxAdminLteModule -->
<g id="edge2" class="edge">
<title>BreadcrumbComponent&#45;&gt;NgxAdminLteModule</title>
<path fill="none" stroke="#000000" d="M3743,-122.0908C3743,-145.1328 3743,-182 3743,-182 3743,-182 2097.6083,-182 2097.6083,-182"/>
<polygon fill="#000000" stroke="#000000" points="2097.6084,-178.5001 2087.6083,-182 2097.6083,-185.5001 2097.6084,-178.5001"/>
</g>
<!-- AppHeaderComponent -->
<g id="node3" class="node">
<title>AppHeaderComponent</title>
<polygon fill="#ffffb3" stroke="#000000" points="3649.8501,-122 3504.1499,-122 3504.1499,-86 3649.8501,-86 3649.8501,-122"/>
<text text-anchor="middle" x="3577" y="-99.8" font-family="Times,serif" font-size="14.00" fill="#000000">AppHeaderComponent</text>
</g>
<!-- AppHeaderComponent&#45;&gt;NgxAdminLteModule -->
<g id="edge3" class="edge">
<title>AppHeaderComponent&#45;&gt;NgxAdminLteModule</title>
<path fill="none" stroke="#000000" d="M3577,-122.2921C3577,-144.2057 3577,-178 3577,-178 3577,-178 2097.8273,-178 2097.8273,-178"/>
<polygon fill="#000000" stroke="#000000" points="2097.8273,-174.5001 2087.8273,-178 2097.8272,-181.5001 2097.8273,-174.5001"/>
</g>
<!-- LogoComponent -->
<g id="node4" class="node">
<title>LogoComponent</title>
<polygon fill="#ffffb3" stroke="#000000" points="3486.3851,-122 3375.6149,-122 3375.6149,-86 3486.3851,-86 3486.3851,-122"/>
<text text-anchor="middle" x="3431" y="-99.8" font-family="Times,serif" font-size="14.00" fill="#000000">LogoComponent</text>
</g>
<!-- LogoComponent&#45;&gt;NgxAdminLteModule -->
<g id="edge4" class="edge">
<title>LogoComponent&#45;&gt;NgxAdminLteModule</title>
<path fill="none" stroke="#000000" d="M3431,-122.2843C3431,-143.3211 3431,-175 3431,-175 3431,-175 2097.6043,-175 2097.6043,-175"/>
<polygon fill="#000000" stroke="#000000" points="2097.6043,-171.5001 2087.6043,-175 2097.6042,-178.5001 2097.6043,-171.5001"/>
</g>
<!-- AppFooterComponent -->
<g id="node5" class="node">
<title>AppFooterComponent</title>
<polygon fill="#ffffb3" stroke="#000000" points="3357.9874,-122 3216.0126,-122 3216.0126,-86 3357.9874,-86 3357.9874,-122"/>
<text text-anchor="middle" x="3287" y="-99.8" font-family="Times,serif" font-size="14.00" fill="#000000">AppFooterComponent</text>
</g>
<!-- AppFooterComponent&#45;&gt;NgxAdminLteModule -->
<g id="edge5" class="edge">
<title>AppFooterComponent&#45;&gt;NgxAdminLteModule</title>
<path fill="none" stroke="#000000" d="M3287,-122.2228C3287,-142.3652 3287,-172 3287,-172 3287,-172 2098.002,-172 2098.002,-172"/>
<polygon fill="#000000" stroke="#000000" points="2098.0021,-168.5001 2088.002,-172 2098.002,-175.5001 2098.0021,-168.5001"/>
</g>
<!-- MenuAsideComponent -->
<g id="node6" class="node">
<title>MenuAsideComponent</title>
<polygon fill="#ffffb3" stroke="#000000" points="3198.1484,-122 3051.8516,-122 3051.8516,-86 3198.1484,-86 3198.1484,-122"/>
<text text-anchor="middle" x="3125" y="-99.8" font-family="Times,serif" font-size="14.00" fill="#000000">MenuAsideComponent</text>
</g>
<!-- MenuAsideComponent&#45;&gt;NgxAdminLteModule -->
<g id="edge6" class="edge">
<title>MenuAsideComponent&#45;&gt;NgxAdminLteModule</title>
<path fill="none" stroke="#000000" d="M3125,-122.1061C3125,-141.3391 3125,-169 3125,-169 3125,-169 2097.9959,-169 2097.9959,-169"/>
<polygon fill="#000000" stroke="#000000" points="2097.9959,-165.5001 2087.9959,-169 2097.9959,-172.5001 2097.9959,-165.5001"/>
</g>
<!-- ControlSidebarComponent -->
<g id="node7" class="node">
<title>ControlSidebarComponent</title>
<polygon fill="#ffffb3" stroke="#000000" points="3033.3738,-122 2866.6262,-122 2866.6262,-86 3033.3738,-86 3033.3738,-122"/>
<text text-anchor="middle" x="2950" y="-99.8" font-family="Times,serif" font-size="14.00" fill="#000000">ControlSidebarComponent</text>
</g>
<!-- ControlSidebarComponent&#45;&gt;NgxAdminLteModule -->
<g id="edge7" class="edge">
<title>ControlSidebarComponent&#45;&gt;NgxAdminLteModule</title>
<path fill="none" stroke="#000000" d="M2950,-122.2222C2950,-140.8285 2950,-167 2950,-167 2950,-167 2097.8924,-167 2097.8924,-167"/>
<polygon fill="#000000" stroke="#000000" points="2097.8925,-163.5001 2087.8924,-167 2097.8924,-170.5001 2097.8925,-163.5001"/>
</g>
<!-- MessagesBoxComponent -->
<g id="node8" class="node">
<title>MessagesBoxComponent</title>
<polygon fill="#ffffb3" stroke="#000000" points="2848.5912,-122 2689.4088,-122 2689.4088,-86 2848.5912,-86 2848.5912,-122"/>
<text text-anchor="middle" x="2769" y="-99.8" font-family="Times,serif" font-size="14.00" fill="#000000">MessagesBoxComponent</text>
</g>
<!-- MessagesBoxComponent&#45;&gt;NgxAdminLteModule -->
<g id="edge8" class="edge">
<title>MessagesBoxComponent&#45;&gt;NgxAdminLteModule</title>
<path fill="none" stroke="#000000" d="M2769,-122.0225C2769,-139.3734 2769,-163 2769,-163 2769,-163 2097.7463,-163 2097.7463,-163"/>
<polygon fill="#000000" stroke="#000000" points="2097.7464,-159.5001 2087.7463,-163 2097.7463,-166.5001 2097.7464,-159.5001"/>
</g>
<!-- NotificationBoxComponent -->
<g id="node9" class="node">
<title>NotificationBoxComponent</title>
<polygon fill="#ffffb3" stroke="#000000" points="2671.3187,-122 2498.6813,-122 2498.6813,-86 2671.3187,-86 2671.3187,-122"/>
<text text-anchor="middle" x="2585" y="-99.8" font-family="Times,serif" font-size="14.00" fill="#000000">NotificationBoxComponent</text>
</g>
<!-- NotificationBoxComponent&#45;&gt;NgxAdminLteModule -->
<g id="edge9" class="edge">
<title>NotificationBoxComponent&#45;&gt;NgxAdminLteModule</title>
<path fill="none" stroke="#000000" d="M2585,-122.027C2585,-138.3976 2585,-160 2585,-160 2585,-160 2097.7891,-160 2097.7891,-160"/>
<polygon fill="#000000" stroke="#000000" points="2097.7892,-156.5001 2087.7891,-160 2097.7891,-163.5001 2097.7892,-156.5001"/>
</g>
<!-- TasksBoxComponent -->
<g id="node10" class="node">
<title>TasksBoxComponent</title>
<polygon fill="#ffffb3" stroke="#000000" points="2480.8258,-122 2343.1742,-122 2343.1742,-86 2480.8258,-86 2480.8258,-122"/>
<text text-anchor="middle" x="2412" y="-99.8" font-family="Times,serif" font-size="14.00" fill="#000000">TasksBoxComponent</text>
</g>
<!-- TasksBoxComponent&#45;&gt;NgxAdminLteModule -->
<g id="edge10" class="edge">
<title>TasksBoxComponent&#45;&gt;NgxAdminLteModule</title>
<path fill="none" stroke="#000000" d="M2412,-122.2396C2412,-137.5706 2412,-157 2412,-157 2412,-157 2097.6181,-157 2097.6181,-157"/>
<polygon fill="#000000" stroke="#000000" points="2097.6181,-153.5001 2087.6181,-157 2097.618,-160.5001 2097.6181,-153.5001"/>
</g>
<!-- UserBoxComponent -->
<g id="node11" class="node">
<title>UserBoxComponent</title>
<polygon fill="#ffffb3" stroke="#000000" points="2325.5954,-122 2194.4046,-122 2194.4046,-86 2325.5954,-86 2325.5954,-122"/>
<text text-anchor="middle" x="2260" y="-99.8" font-family="Times,serif" font-size="14.00" fill="#000000">UserBoxComponent</text>
</g>
<!-- UserBoxComponent&#45;&gt;NgxAdminLteModule -->
<g id="edge11" class="edge">
<title>UserBoxComponent&#45;&gt;NgxAdminLteModule</title>
<path fill="none" stroke="#000000" d="M2260,-122.0511C2260,-136.373 2260,-154 2260,-154 2260,-154 2097.6121,-154 2097.6121,-154"/>
<polygon fill="#000000" stroke="#000000" points="2097.6121,-150.5001 2087.6121,-154 2097.612,-157.5001 2097.6121,-150.5001"/>
</g>
<!-- LayoutAuthComponent -->
<g id="node12" class="node">
<title>LayoutAuthComponent</title>
<polygon fill="#ffffb3" stroke="#000000" points="2176.4874,-122 2027.5126,-122 2027.5126,-86 2176.4874,-86 2176.4874,-122"/>
<text text-anchor="middle" x="2102" y="-99.8" font-family="Times,serif" font-size="14.00" fill="#000000">LayoutAuthComponent</text>
</g>
<!-- LayoutAuthComponent&#45;&gt;NgxAdminLteModule -->
<g id="edge12" class="edge">
<title>LayoutAuthComponent&#45;&gt;NgxAdminLteModule</title>
<path fill="none" stroke="#000000" d="M2057.5537,-122.1061C2057.5537,-122.1061 2057.5537,-140.991 2057.5537,-140.991"/>
<polygon fill="#000000" stroke="#000000" points="2054.0537,-140.9909 2057.5537,-150.991 2061.0537,-140.991 2054.0537,-140.9909"/>
</g>
<!-- LayoutLoginComponent -->
<g id="node13" class="node">
<title>LayoutLoginComponent</title>
<polygon fill="#ffffb3" stroke="#000000" points="2009.434,-122 1854.566,-122 1854.566,-86 2009.434,-86 2009.434,-122"/>
<text text-anchor="middle" x="1932" y="-99.8" font-family="Times,serif" font-size="14.00" fill="#000000">LayoutLoginComponent</text>
</g>
<!-- LayoutLoginComponent&#45;&gt;NgxAdminLteModule -->
<g id="edge13" class="edge">
<title>LayoutLoginComponent&#45;&gt;NgxAdminLteModule</title>
<path fill="none" stroke="#000000" d="M1977.8079,-122.1061C1977.8079,-122.1061 1977.8079,-140.991 1977.8079,-140.991"/>
<polygon fill="#000000" stroke="#000000" points="1974.3079,-140.9909 1977.8079,-150.991 1981.3079,-140.991 1974.3079,-140.9909"/>
</g>
<!-- LayoutRegisterComponent -->
<g id="node14" class="node">
<title>LayoutRegisterComponent</title>
<polygon fill="#ffffb3" stroke="#000000" points="1836.6428,-122 1669.3572,-122 1669.3572,-86 1836.6428,-86 1836.6428,-122"/>
<text text-anchor="middle" x="1753" y="-99.8" font-family="Times,serif" font-size="14.00" fill="#000000">LayoutRegisterComponent</text>
</g>
<!-- LayoutRegisterComponent&#45;&gt;NgxAdminLteModule -->
<g id="edge14" class="edge">
<title>LayoutRegisterComponent&#45;&gt;NgxAdminLteModule</title>
<path fill="none" stroke="#000000" d="M1753,-122.0511C1753,-136.373 1753,-154 1753,-154 1753,-154 1936.2528,-154 1936.2528,-154"/>
<polygon fill="#000000" stroke="#000000" points="1936.2529,-157.5001 1946.2528,-154 1936.2528,-150.5001 1936.2529,-157.5001"/>
</g>
<!-- UserService -->
<g id="node16" class="node">
<title>UserService</title>
<ellipse fill="#fdb462" stroke="#000000" cx="1587" cy="-104" rx="58.4415" ry="18"/>
<text text-anchor="middle" x="1587" y="-99.8" font-family="Times,serif" font-size="14.00" fill="#000000">UserService</text>
</g>
<!-- UserService&#45;&gt;NgxAdminLteModule -->
<g id="edge15" class="edge">
<title>UserService&#45;&gt;NgxAdminLteModule</title>
<path fill="none" stroke="#000000" d="M1587,-122.2396C1587,-137.5706 1587,-157 1587,-157 1587,-157 1935.9942,-157 1935.9942,-157"/>
<polygon fill="#000000" stroke="#000000" points="1935.9943,-160.5001 1945.9942,-157 1935.9942,-153.5001 1935.9943,-160.5001"/>
</g>
<!-- MenuService -->
<g id="node17" class="node">
<title>MenuService</title>
<ellipse fill="#fdb462" stroke="#000000" cx="1448" cy="-104" rx="62.5392" ry="18"/>
<text text-anchor="middle" x="1448" y="-99.8" font-family="Times,serif" font-size="14.00" fill="#000000">MenuService</text>
</g>
<!-- MenuService&#45;&gt;NgxAdminLteModule -->
<g id="edge16" class="edge">
<title>MenuService&#45;&gt;NgxAdminLteModule</title>
<path fill="none" stroke="#000000" d="M1448,-122.027C1448,-138.3976 1448,-160 1448,-160 1448,-160 1936.3727,-160 1936.3727,-160"/>
<polygon fill="#000000" stroke="#000000" points="1936.3728,-163.5001 1946.3727,-160 1936.3727,-156.5001 1936.3728,-163.5001"/>
</g>
<!-- LogoService -->
<g id="node18" class="node">
<title>LogoService</title>
<ellipse fill="#fdb462" stroke="#000000" cx="1307" cy="-104" rx="60.2537" ry="18"/>
<text text-anchor="middle" x="1307" y="-99.8" font-family="Times,serif" font-size="14.00" fill="#000000">LogoService</text>
</g>
<!-- LogoService&#45;&gt;NgxAdminLteModule -->
<g id="edge17" class="edge">
<title>LogoService&#45;&gt;NgxAdminLteModule</title>
<path fill="none" stroke="#000000" d="M1307,-122.0225C1307,-139.3734 1307,-163 1307,-163 1307,-163 1936.3268,-163 1936.3268,-163"/>
<polygon fill="#000000" stroke="#000000" points="1936.3268,-166.5001 1946.3268,-163 1936.3267,-159.5001 1936.3268,-166.5001"/>
</g>
<!-- FooterService -->
<g id="node19" class="node">
<title>FooterService</title>
<ellipse fill="#fdb462" stroke="#000000" cx="1163" cy="-104" rx="65.4053" ry="18"/>
<text text-anchor="middle" x="1163" y="-99.8" font-family="Times,serif" font-size="14.00" fill="#000000">FooterService</text>
</g>
<!-- FooterService&#45;&gt;NgxAdminLteModule -->
<g id="edge18" class="edge">
<title>FooterService&#45;&gt;NgxAdminLteModule</title>
<path fill="none" stroke="#000000" d="M1163,-122.2222C1163,-140.8285 1163,-167 1163,-167 1163,-167 1936.387,-167 1936.387,-167"/>
<polygon fill="#000000" stroke="#000000" points="1936.3871,-170.5001 1946.387,-167 1936.387,-163.5001 1936.3871,-170.5001"/>
</g>
<!-- BreadcrumbService -->
<g id="node20" class="node">
<title>BreadcrumbService</title>
<ellipse fill="#fdb462" stroke="#000000" cx="992" cy="-104" rx="87.9394" ry="18"/>
<text text-anchor="middle" x="992" y="-99.8" font-family="Times,serif" font-size="14.00" fill="#000000">BreadcrumbService</text>
</g>
<!-- BreadcrumbService&#45;&gt;NgxAdminLteModule -->
<g id="edge19" class="edge">
<title>BreadcrumbService&#45;&gt;NgxAdminLteModule</title>
<path fill="none" stroke="#000000" d="M992,-122.1061C992,-141.3391 992,-169 992,-169 992,-169 1936.1432,-169 1936.1432,-169"/>
<polygon fill="#000000" stroke="#000000" points="1936.1432,-172.5001 1946.1432,-169 1936.1432,-165.5001 1936.1432,-172.5001"/>
</g>
<!-- MessagesService -->
<g id="node21" class="node">
<title>MessagesService</title>
<ellipse fill="#fdb462" stroke="#000000" cx="809" cy="-104" rx="77.5627" ry="18"/>
<text text-anchor="middle" x="809" y="-99.8" font-family="Times,serif" font-size="14.00" fill="#000000">MessagesService</text>
</g>
<!-- MessagesService&#45;&gt;NgxAdminLteModule -->
<g id="edge20" class="edge">
<title>MessagesService&#45;&gt;NgxAdminLteModule</title>
<path fill="none" stroke="#000000" d="M809,-122.2228C809,-142.3652 809,-172 809,-172 809,-172 1936.3883,-172 1936.3883,-172"/>
<polygon fill="#000000" stroke="#000000" points="1936.3883,-175.5001 1946.3883,-172 1936.3883,-168.5001 1936.3883,-175.5001"/>
</g>
<!-- CanActivateGuard -->
<g id="node22" class="node">
<title>CanActivateGuard</title>
<ellipse fill="#fdb462" stroke="#000000" cx="630" cy="-104" rx="83.3654" ry="18"/>
<text text-anchor="middle" x="630" y="-99.8" font-family="Times,serif" font-size="14.00" fill="#000000">CanActivateGuard</text>
</g>
<!-- CanActivateGuard&#45;&gt;NgxAdminLteModule -->
<g id="edge21" class="edge">
<title>CanActivateGuard&#45;&gt;NgxAdminLteModule</title>
<path fill="none" stroke="#000000" d="M630,-122.2843C630,-143.3211 630,-175 630,-175 630,-175 1936.3116,-175 1936.3116,-175"/>
<polygon fill="#000000" stroke="#000000" points="1936.3116,-178.5001 1946.3116,-175 1936.3116,-171.5001 1936.3116,-178.5001"/>
</g>
<!-- NotificationsService -->
<g id="node23" class="node">
<title>NotificationsService</title>
<ellipse fill="#fdb462" stroke="#000000" cx="438" cy="-104" rx="90.3217" ry="18"/>
<text text-anchor="middle" x="438" y="-99.8" font-family="Times,serif" font-size="14.00" fill="#000000">NotificationsService</text>
</g>
<!-- NotificationsService&#45;&gt;NgxAdminLteModule -->
<g id="edge22" class="edge">
<title>NotificationsService&#45;&gt;NgxAdminLteModule</title>
<path fill="none" stroke="#000000" d="M438,-122.2921C438,-144.2057 438,-178 438,-178 438,-178 1936.344,-178 1936.344,-178"/>
<polygon fill="#000000" stroke="#000000" points="1936.344,-181.5001 1946.344,-178 1936.3439,-174.5001 1936.344,-181.5001"/>
</g>
<!-- TranslateService -->
<g id="node24" class="node">
<title>TranslateService</title>
<ellipse fill="#fdb462" stroke="#000000" cx="254" cy="-104" rx="75.8354" ry="18"/>
<text text-anchor="middle" x="254" y="-99.8" font-family="Times,serif" font-size="14.00" fill="#000000">TranslateService</text>
</g>
<!-- TranslateService&#45;&gt;NgxAdminLteModule -->
<g id="edge23" class="edge">
<title>TranslateService&#45;&gt;NgxAdminLteModule</title>
<path fill="none" stroke="#000000" d="M254,-122.0908C254,-145.1328 254,-182 254,-182 254,-182 1936.2535,-182 1936.2535,-182"/>
<polygon fill="#000000" stroke="#000000" points="1936.2536,-185.5001 1946.2535,-182 1936.2535,-178.5001 1936.2536,-185.5001"/>
</g>
<!-- LoggerService -->
<g id="node25" class="node">
<title>LoggerService</title>
<ellipse fill="#fdb462" stroke="#000000" cx="92" cy="-104" rx="67.7567" ry="18"/>
<text text-anchor="middle" x="92" y="-99.8" font-family="Times,serif" font-size="14.00" fill="#000000">LoggerService</text>
</g>
<!-- LoggerService&#45;&gt;NgxAdminLteModule -->
<g id="edge24" class="edge">
<title>LoggerService&#45;&gt;NgxAdminLteModule</title>
<path fill="none" stroke="#000000" d="M92,-122.1532C92,-145.7566 92,-184 92,-184 92,-184 1936.2052,-184 1936.2052,-184"/>
<polygon fill="#000000" stroke="#000000" points="1936.2053,-187.5001 1946.2052,-184 1936.2052,-180.5001 1936.2053,-187.5001"/>
</g>
</g>
</svg>
