<?xml version="1.0" encoding="UTF-8" standalone="no"?>
<!DOCTYPE svg PUBLIC "-//W3C//DTD SVG 1.1//EN"
 "http://www.w3.org/Graphics/SVG/1.1/DTD/svg11.dtd">
<!-- Generated by graphviz version 2.40.1 (20161225.0304)
 -->
<!-- Title: dependencies Pages: 1 -->
<svg width="4384pt" height="284pt"
 viewBox="0.00 0.00 4384.00 284.00" xmlns="http://www.w3.org/2000/svg" xmlns:xlink="http://www.w3.org/1999/xlink">
<g id="graph0" class="graph" transform="scale(1 1) rotate(0) translate(4 280)">
<title>dependencies</title>
<polygon fill="#ffffff" stroke="transparent" points="-4,4 -4,-280 4380,-280 4380,4 -4,4"/>
<text text-anchor="start" x="2167.0091" y="-42.4" font-family="sans-serif" font-weight="bold" font-size="14.00" fill="#000000">Legend</text>
<polygon fill="#ffffb3" stroke="transparent" points="1954,-10 1954,-30 1974,-30 1974,-10 1954,-10"/>
<text text-anchor="start" x="1977.629" y="-15.4" font-family="sans-serif" font-size="14.00" fill="#000000"> &#160;Declarations</text>
<polygon fill="#8dd3c7" stroke="transparent" points="2067,-10 2067,-30 2087,-30 2087,-10 2067,-10"/>
<text text-anchor="start" x="2090.7251" y="-15.4" font-family="sans-serif" font-size="14.00" fill="#000000"> &#160;Module</text>
<polygon fill="#80b1d3" stroke="transparent" points="2153,-10 2153,-30 2173,-30 2173,-10 2153,-10"/>
<text text-anchor="start" x="2176.7812" y="-15.4" font-family="sans-serif" font-size="14.00" fill="#000000"> &#160;Bootstrap</text>
<polygon fill="#fdb462" stroke="transparent" points="2250,-10 2250,-30 2270,-30 2270,-10 2250,-10"/>
<text text-anchor="start" x="2273.6732" y="-15.4" font-family="sans-serif" font-size="14.00" fill="#000000"> &#160;Providers</text>
<polygon fill="#fb8072" stroke="transparent" points="2346,-10 2346,-30 2366,-30 2366,-10 2346,-10"/>
<text text-anchor="start" x="2369.7258" y="-15.4" font-family="sans-serif" font-size="14.00" fill="#000000"> &#160;Exports</text>
<g id="clust1" class="cluster">
<title>cluster_NgxAdminLteModule</title>
<polygon fill="none" stroke="#000000" stroke-dasharray="1,5" points="8,-70 8,-268 4368,-268 4368,-70 8,-70"/>
</g>
<g id="clust2" class="cluster">
<title>cluster_NgxAdminLteModule_declarations</title>
<polygon fill="none" stroke="#000000" points="1877,-78 1877,-130 4360,-130 4360,-78 1877,-78"/>
</g>
<g id="clust19" class="cluster">
<title>cluster_NgxAdminLteModule_exports</title>
<polygon fill="none" stroke="#000000" points="2176,-208 2176,-260 2290,-260 2290,-208 2176,-208"/>
</g>
<g id="clust21" class="cluster">
<title>cluster_NgxAdminLteModule_providers</title>
<polygon fill="none" stroke="#000000" points="16,-78 16,-130 1869,-130 1869,-78 16,-78"/>
</g>
<!-- SafeHtmlPipe -->
<g id="node1" class="node">
<title>SafeHtmlPipe</title>
<polygon fill="#ffffb3" stroke="#000000" points="4352.0397,-122 4257.9603,-122 4257.9603,-86 4352.0397,-86 4352.0397,-122"/>
<text text-anchor="middle" x="4305" y="-99.8" font-family="Times,serif" font-size="14.00" fill="#000000">SafeHtmlPipe</text>
</g>
<!-- NgxAdminLteModule -->
<g id="node16" class="node">
<title>NgxAdminLteModule</title>
<polygon fill="#8dd3c7" stroke="#000000" points="2303.7021,-187 2300.7021,-191 2279.7021,-191 2276.7021,-187 2162.2979,-187 2162.2979,-151 2303.7021,-151 2303.7021,-187"/>
<text text-anchor="middle" x="2233" y="-164.8" font-family="Times,serif" font-size="14.00" fill="#000000">NgxAdminLteModule</text>
</g>
<!-- SafeHtmlPipe&#45;&gt;NgxAdminLteModule -->
<g id="edge1" class="edge">
<title>SafeHtmlPipe&#45;&gt;NgxAdminLteModule</title>
<path fill="none" stroke="#000000" d="M4305,-122.3802C4305,-146.2785 4305,-185 4305,-185 4305,-185 2313.7235,-185 2313.7235,-185"/>
<polygon fill="#000000" stroke="#000000" points="2313.7236,-181.5001 2303.7235,-185 2313.7235,-188.5001 2313.7236,-181.5001"/>
</g>
<!-- BreadcrumbComponent -->
<g id="node2" class="node">
<title>BreadcrumbComponent</title>
<polygon fill="#ffffb3" stroke="#000000" points="4239.0253,-122 4088.9747,-122 4088.9747,-86 4239.0253,-86 4239.0253,-122"/>
<text text-anchor="middle" x="4164" y="-99.8" font-family="Times,serif" font-size="14.00" fill="#000000">BreadcrumbComponent</text>
</g>
<!-- BreadcrumbComponent&#45;&gt;NgxAdminLteModule -->
<g id="edge2" class="edge">
<title>BreadcrumbComponent&#45;&gt;NgxAdminLteModule</title>
<path fill="none" stroke="#000000" d="M4164,-122.0908C4164,-145.1328 4164,-182 4164,-182 4164,-182 2313.7273,-182 2313.7273,-182"/>
<polygon fill="#000000" stroke="#000000" points="2313.7273,-178.5001 2303.7273,-182 2313.7273,-185.5001 2313.7273,-178.5001"/>
</g>
<!-- AppHeaderComponent -->
<g id="node3" class="node">
<title>AppHeaderComponent</title>
<polygon fill="#ffffb3" stroke="#000000" points="4070.8501,-122 3925.1499,-122 3925.1499,-86 4070.8501,-86 4070.8501,-122"/>
<text text-anchor="middle" x="3998" y="-99.8" font-family="Times,serif" font-size="14.00" fill="#000000">AppHeaderComponent</text>
</g>
<!-- AppHeaderComponent&#45;&gt;NgxAdminLteModule -->
<g id="edge3" class="edge">
<title>AppHeaderComponent&#45;&gt;NgxAdminLteModule</title>
<path fill="none" stroke="#000000" d="M3998,-122.1554C3998,-144.3519 3998,-179 3998,-179 3998,-179 2313.8267,-179 2313.8267,-179"/>
<polygon fill="#000000" stroke="#000000" points="2313.8268,-175.5001 2303.8267,-179 2313.8267,-182.5001 2313.8268,-175.5001"/>
</g>
<!-- LogoComponent -->
<g id="node4" class="node">
<title>LogoComponent</title>
<polygon fill="#ffffb3" stroke="#000000" points="3907.3851,-122 3796.6149,-122 3796.6149,-86 3907.3851,-86 3907.3851,-122"/>
<text text-anchor="middle" x="3852" y="-99.8" font-family="Times,serif" font-size="14.00" fill="#000000">LogoComponent</text>
</g>
<!-- LogoComponent&#45;&gt;NgxAdminLteModule -->
<g id="edge4" class="edge">
<title>LogoComponent&#45;&gt;NgxAdminLteModule</title>
<path fill="none" stroke="#000000" d="M3852,-122.1686C3852,-143.498 3852,-176 3852,-176 3852,-176 2313.6074,-176 2313.6074,-176"/>
<polygon fill="#000000" stroke="#000000" points="2313.6075,-172.5001 2303.6074,-176 2313.6074,-179.5001 2313.6075,-172.5001"/>
</g>
<!-- AppFooterComponent -->
<g id="node5" class="node">
<title>AppFooterComponent</title>
<polygon fill="#ffffb3" stroke="#000000" points="3778.9874,-122 3637.0126,-122 3637.0126,-86 3778.9874,-86 3778.9874,-122"/>
<text text-anchor="middle" x="3708" y="-99.8" font-family="Times,serif" font-size="14.00" fill="#000000">AppFooterComponent</text>
</g>
<!-- AppFooterComponent&#45;&gt;NgxAdminLteModule -->
<g id="edge5" class="edge">
<title>AppFooterComponent&#45;&gt;NgxAdminLteModule</title>
<path fill="none" stroke="#000000" d="M3708,-122.0267C3708,-142.7672 3708,-174 3708,-174 3708,-174 2313.6454,-174 2313.6454,-174"/>
<polygon fill="#000000" stroke="#000000" points="2313.6454,-170.5001 2303.6454,-174 2313.6454,-177.5001 2313.6454,-170.5001"/>
</g>
<!-- MenuAsideComponent -->
<g id="node6" class="node">
<title>MenuAsideComponent</title>
<polygon fill="#ffffb3" stroke="#000000" points="3619.1484,-122 3472.8516,-122 3472.8516,-86 3619.1484,-86 3619.1484,-122"/>
<text text-anchor="middle" x="3546" y="-99.8" font-family="Times,serif" font-size="14.00" fill="#000000">MenuAsideComponent</text>
</g>
<!-- MenuAsideComponent&#45;&gt;NgxAdminLteModule -->
<g id="edge6" class="edge">
<title>MenuAsideComponent&#45;&gt;NgxAdminLteModule</title>
<path fill="none" stroke="#000000" d="M3546,-122.308C3546,-142.1455 3546,-171 3546,-171 3546,-171 2314.0581,-171 2314.0581,-171"/>
<polygon fill="#000000" stroke="#000000" points="2314.0582,-167.5001 2304.0581,-171 2314.0581,-174.5001 2314.0582,-167.5001"/>
</g>
<!-- ControlSidebarComponent -->
<g id="node7" class="node">
<title>ControlSidebarComponent</title>
<polygon fill="#ffffb3" stroke="#000000" points="3454.3738,-122 3287.6262,-122 3287.6262,-86 3454.3738,-86 3454.3738,-122"/>
<text text-anchor="middle" x="3371" y="-99.8" font-family="Times,serif" font-size="14.00" fill="#000000">ControlSidebarComponent</text>
</g>
<!-- ControlSidebarComponent&#45;&gt;NgxAdminLteModule -->
<g id="edge7" class="edge">
<title>ControlSidebarComponent&#45;&gt;NgxAdminLteModule</title>
<path fill="none" stroke="#000000" d="M3371,-122.1686C3371,-141.0898 3371,-168 3371,-168 3371,-168 2313.757,-168 2313.757,-168"/>
<polygon fill="#000000" stroke="#000000" points="2313.7571,-164.5001 2303.757,-168 2313.757,-171.5001 2313.7571,-164.5001"/>
</g>
<!-- MessagesBoxComponent -->
<g id="node8" class="node">
<title>MessagesBoxComponent</title>
<polygon fill="#ffffb3" stroke="#000000" points="3269.5912,-122 3110.4088,-122 3110.4088,-86 3269.5912,-86 3269.5912,-122"/>
<text text-anchor="middle" x="3190" y="-99.8" font-family="Times,serif" font-size="14.00" fill="#000000">MessagesBoxComponent</text>
</g>
<!-- MessagesBoxComponent&#45;&gt;NgxAdminLteModule -->
<g id="edge8" class="edge">
<title>MessagesBoxComponent&#45;&gt;NgxAdminLteModule</title>
<path fill="none" stroke="#000000" d="M3190,-122.302C3190,-140.2699 3190,-165 3190,-165 3190,-165 2313.7591,-165 2313.7591,-165"/>
<polygon fill="#000000" stroke="#000000" points="2313.7592,-161.5001 2303.7591,-165 2313.7591,-168.5001 2313.7592,-161.5001"/>
</g>
<!-- NotificationBoxComponent -->
<g id="node9" class="node">
<title>NotificationBoxComponent</title>
<polygon fill="#ffffb3" stroke="#000000" points="3092.3187,-122 2919.6813,-122 2919.6813,-86 3092.3187,-86 3092.3187,-122"/>
<text text-anchor="middle" x="3006" y="-99.8" font-family="Times,serif" font-size="14.00" fill="#000000">NotificationBoxComponent</text>
</g>
<!-- NotificationBoxComponent&#45;&gt;NgxAdminLteModule -->
<g id="edge9" class="edge">
<title>NotificationBoxComponent&#45;&gt;NgxAdminLteModule</title>
<path fill="none" stroke="#000000" d="M3006,-122.0225C3006,-139.3734 3006,-163 3006,-163 3006,-163 2313.6478,-163 2313.6478,-163"/>
<polygon fill="#000000" stroke="#000000" points="2313.6478,-159.5001 2303.6478,-163 2313.6478,-166.5001 2313.6478,-159.5001"/>
</g>
<!-- TasksBoxComponent -->
<g id="node10" class="node">
<title>TasksBoxComponent</title>
<polygon fill="#ffffb3" stroke="#000000" points="2901.8258,-122 2764.1742,-122 2764.1742,-86 2901.8258,-86 2901.8258,-122"/>
<text text-anchor="middle" x="2833" y="-99.8" font-family="Times,serif" font-size="14.00" fill="#000000">TasksBoxComponent</text>
</g>
<!-- TasksBoxComponent&#45;&gt;NgxAdminLteModule -->
<g id="edge10" class="edge">
<title>TasksBoxComponent&#45;&gt;NgxAdminLteModule</title>
<path fill="none" stroke="#000000" d="M2833,-122.027C2833,-138.3976 2833,-160 2833,-160 2833,-160 2313.8878,-160 2313.8878,-160"/>
<polygon fill="#000000" stroke="#000000" points="2313.8878,-156.5001 2303.8878,-160 2313.8877,-163.5001 2313.8878,-156.5001"/>
</g>
<!-- UserBoxComponent -->
<g id="node11" class="node">
<title>UserBoxComponent</title>
<polygon fill="#ffffb3" stroke="#000000" points="2746.5954,-122 2615.4046,-122 2615.4046,-86 2746.5954,-86 2746.5954,-122"/>
<text text-anchor="middle" x="2681" y="-99.8" font-family="Times,serif" font-size="14.00" fill="#000000">UserBoxComponent</text>
</g>
<!-- UserBoxComponent&#45;&gt;NgxAdminLteModule -->
<g id="edge11" class="edge">
<title>UserBoxComponent&#45;&gt;NgxAdminLteModule</title>
<path fill="none" stroke="#000000" d="M2681,-122.2396C2681,-137.5706 2681,-157 2681,-157 2681,-157 2313.9869,-157 2313.9869,-157"/>
<polygon fill="#000000" stroke="#000000" points="2313.987,-153.5001 2303.9869,-157 2313.9869,-160.5001 2313.987,-153.5001"/>
</g>
<!-- ComponentLoaderComponent -->
<g id="node12" class="node">
<title>ComponentLoaderComponent</title>
<polygon fill="#ffffb3" stroke="#000000" points="2597.3075,-122 2410.6925,-122 2410.6925,-86 2597.3075,-86 2597.3075,-122"/>
<text text-anchor="middle" x="2504" y="-99.8" font-family="Times,serif" font-size="14.00" fill="#000000">ComponentLoaderComponent</text>
</g>
<!-- ComponentLoaderComponent&#45;&gt;NgxAdminLteModule -->
<g id="edge12" class="edge">
<title>ComponentLoaderComponent&#45;&gt;NgxAdminLteModule</title>
<path fill="none" stroke="#000000" d="M2504,-122.0511C2504,-136.373 2504,-154 2504,-154 2504,-154 2313.8481,-154 2313.8481,-154"/>
<polygon fill="#000000" stroke="#000000" points="2313.8481,-150.5001 2303.8481,-154 2313.848,-157.5001 2313.8481,-150.5001"/>
</g>
<!-- LayoutAuthComponent -->
<g id="node13" class="node">
<title>LayoutAuthComponent</title>
<polygon fill="#ffffb3" stroke="#000000" points="2392.4874,-122 2243.5126,-122 2243.5126,-86 2392.4874,-86 2392.4874,-122"/>
<text text-anchor="middle" x="2318" y="-99.8" font-family="Times,serif" font-size="14.00" fill="#000000">LayoutAuthComponent</text>
</g>
<!-- LayoutAuthComponent&#45;&gt;NgxAdminLteModule -->
<g id="edge13" class="edge">
<title>LayoutAuthComponent&#45;&gt;NgxAdminLteModule</title>
<path fill="none" stroke="#000000" d="M2273.5537,-122.1061C2273.5537,-122.1061 2273.5537,-140.991 2273.5537,-140.991"/>
<polygon fill="#000000" stroke="#000000" points="2270.0537,-140.9909 2273.5537,-150.991 2277.0537,-140.991 2270.0537,-140.9909"/>
</g>
<!-- LayoutLoginComponent -->
<g id="node14" class="node">
<title>LayoutLoginComponent</title>
<polygon fill="#ffffb3" stroke="#000000" points="2225.434,-122 2070.566,-122 2070.566,-86 2225.434,-86 2225.434,-122"/>
<text text-anchor="middle" x="2148" y="-99.8" font-family="Times,serif" font-size="14.00" fill="#000000">LayoutLoginComponent</text>
</g>
<!-- LayoutLoginComponent&#45;&gt;NgxAdminLteModule -->
<g id="edge14" class="edge">
<title>LayoutLoginComponent&#45;&gt;NgxAdminLteModule</title>
<path fill="none" stroke="#000000" d="M2193.8079,-122.1061C2193.8079,-122.1061 2193.8079,-140.991 2193.8079,-140.991"/>
<polygon fill="#000000" stroke="#000000" points="2190.3079,-140.9909 2193.8079,-150.991 2197.3079,-140.991 2190.3079,-140.9909"/>
</g>
<!-- LayoutRegisterComponent -->
<g id="node15" class="node">
<title>LayoutRegisterComponent</title>
<polygon fill="#ffffb3" stroke="#000000" points="2052.6428,-122 1885.3572,-122 1885.3572,-86 2052.6428,-86 2052.6428,-122"/>
<text text-anchor="middle" x="1969" y="-99.8" font-family="Times,serif" font-size="14.00" fill="#000000">LayoutRegisterComponent</text>
</g>
<!-- LayoutRegisterComponent&#45;&gt;NgxAdminLteModule -->
<g id="edge15" class="edge">
<title>LayoutRegisterComponent&#45;&gt;NgxAdminLteModule</title>
<path fill="none" stroke="#000000" d="M1969,-122.0511C1969,-136.373 1969,-154 1969,-154 1969,-154 2152.2528,-154 2152.2528,-154"/>
<polygon fill="#000000" stroke="#000000" points="2152.2529,-157.5001 2162.2528,-154 2152.2528,-150.5001 2152.2529,-157.5001"/>
</g>
<!-- SafeHtmlPipe  -->
<g id="node17" class="node">
<title>SafeHtmlPipe </title>
<polygon fill="#fb8072" stroke="#000000" points="2282.0386,-252 2183.9614,-252 2183.9614,-216 2282.0386,-216 2282.0386,-252"/>
<text text-anchor="middle" x="2233" y="-229.8" font-family="Times,serif" font-size="14.00" fill="#000000">SafeHtmlPipe </text>
</g>
<!-- NgxAdminLteModule&#45;&gt;SafeHtmlPipe  -->
<g id="edge16" class="edge">
<title>NgxAdminLteModule&#45;&gt;SafeHtmlPipe </title>
<path fill="none" stroke="#000000" stroke-dasharray="5,2" d="M2233,-187.1061C2233,-187.1061 2233,-205.991 2233,-205.991"/>
<polygon fill="#000000" stroke="#000000" points="2229.5001,-205.9909 2233,-215.991 2236.5001,-205.991 2229.5001,-205.9909"/>
</g>
<!-- UserService -->
<g id="node18" class="node">
<title>UserService</title>
<ellipse fill="#fdb462" stroke="#000000" cx="1803" cy="-104" rx="58.4415" ry="18"/>
<text text-anchor="middle" x="1803" y="-99.8" font-family="Times,serif" font-size="14.00" fill="#000000">UserService</text>
</g>
<!-- UserService&#45;&gt;NgxAdminLteModule -->
<g id="edge17" class="edge">
<title>UserService&#45;&gt;NgxAdminLteModule</title>
<path fill="none" stroke="#000000" d="M1803,-122.2396C1803,-137.5706 1803,-157 1803,-157 1803,-157 2151.9942,-157 2151.9942,-157"/>
<polygon fill="#000000" stroke="#000000" points="2151.9943,-160.5001 2161.9942,-157 2151.9942,-153.5001 2151.9943,-160.5001"/>
</g>
<!-- MenuService -->
<g id="node19" class="node">
<title>MenuService</title>
<ellipse fill="#fdb462" stroke="#000000" cx="1664" cy="-104" rx="62.5392" ry="18"/>
<text text-anchor="middle" x="1664" y="-99.8" font-family="Times,serif" font-size="14.00" fill="#000000">MenuService</text>
</g>
<!-- MenuService&#45;&gt;NgxAdminLteModule -->
<g id="edge18" class="edge">
<title>MenuService&#45;&gt;NgxAdminLteModule</title>
<path fill="none" stroke="#000000" d="M1664,-122.027C1664,-138.3976 1664,-160 1664,-160 1664,-160 2152.3727,-160 2152.3727,-160"/>
<polygon fill="#000000" stroke="#000000" points="2152.3728,-163.5001 2162.3727,-160 2152.3727,-156.5001 2152.3728,-163.5001"/>
</g>
<!-- LogoService -->
<g id="node20" class="node">
<title>LogoService</title>
<ellipse fill="#fdb462" stroke="#000000" cx="1523" cy="-104" rx="60.2537" ry="18"/>
<text text-anchor="middle" x="1523" y="-99.8" font-family="Times,serif" font-size="14.00" fill="#000000">LogoService</text>
</g>
<!-- LogoService&#45;&gt;NgxAdminLteModule -->
<g id="edge19" class="edge">
<title>LogoService&#45;&gt;NgxAdminLteModule</title>
<path fill="none" stroke="#000000" d="M1523,-122.0225C1523,-139.3734 1523,-163 1523,-163 1523,-163 2152.3268,-163 2152.3268,-163"/>
<polygon fill="#000000" stroke="#000000" points="2152.3268,-166.5001 2162.3268,-163 2152.3267,-159.5001 2152.3268,-166.5001"/>
</g>
<!-- FooterService -->
<g id="node21" class="node">
<title>FooterService</title>
<ellipse fill="#fdb462" stroke="#000000" cx="1379" cy="-104" rx="65.4053" ry="18"/>
<text text-anchor="middle" x="1379" y="-99.8" font-family="Times,serif" font-size="14.00" fill="#000000">FooterService</text>
</g>
<!-- FooterService&#45;&gt;NgxAdminLteModule -->
<g id="edge20" class="edge">
<title>FooterService&#45;&gt;NgxAdminLteModule</title>
<path fill="none" stroke="#000000" d="M1379,-122.302C1379,-140.2699 1379,-165 1379,-165 1379,-165 2152.387,-165 2152.387,-165"/>
<polygon fill="#000000" stroke="#000000" points="2152.3871,-168.5001 2162.387,-165 2152.387,-161.5001 2152.3871,-168.5001"/>
</g>
<!-- BreadcrumbService -->
<g id="node22" class="node">
<title>BreadcrumbService</title>
<ellipse fill="#fdb462" stroke="#000000" cx="1208" cy="-104" rx="87.9394" ry="18"/>
<text text-anchor="middle" x="1208" y="-99.8" font-family="Times,serif" font-size="14.00" fill="#000000">BreadcrumbService</text>
</g>
<!-- BreadcrumbService&#45;&gt;NgxAdminLteModule -->
<g id="edge21" class="edge">
<title>BreadcrumbService&#45;&gt;NgxAdminLteModule</title>
<path fill="none" stroke="#000000" d="M1208,-122.1686C1208,-141.0898 1208,-168 1208,-168 1208,-168 2152.1432,-168 2152.1432,-168"/>
<polygon fill="#000000" stroke="#000000" points="2152.1432,-171.5001 2162.1432,-168 2152.1432,-164.5001 2152.1432,-171.5001"/>
</g>
<!-- MessagesService -->
<g id="node23" class="node">
<title>MessagesService</title>
<ellipse fill="#fdb462" stroke="#000000" cx="1025" cy="-104" rx="77.5627" ry="18"/>
<text text-anchor="middle" x="1025" y="-99.8" font-family="Times,serif" font-size="14.00" fill="#000000">MessagesService</text>
</g>
<!-- MessagesService&#45;&gt;NgxAdminLteModule -->
<g id="edge22" class="edge">
<title>MessagesService&#45;&gt;NgxAdminLteModule</title>
<path fill="none" stroke="#000000" d="M1025,-122.308C1025,-142.1455 1025,-171 1025,-171 1025,-171 2152.3883,-171 2152.3883,-171"/>
<polygon fill="#000000" stroke="#000000" points="2152.3883,-174.5001 2162.3883,-171 2152.3883,-167.5001 2152.3883,-174.5001"/>
</g>
<!-- CanActivateGuard -->
<g id="node24" class="node">
<title>CanActivateGuard</title>
<ellipse fill="#fdb462" stroke="#000000" cx="846" cy="-104" rx="83.3654" ry="18"/>
<text text-anchor="middle" x="846" y="-99.8" font-family="Times,serif" font-size="14.00" fill="#000000">CanActivateGuard</text>
</g>
<!-- CanActivateGuard&#45;&gt;NgxAdminLteModule -->
<g id="edge23" class="edge">
<title>CanActivateGuard&#45;&gt;NgxAdminLteModule</title>
<path fill="none" stroke="#000000" d="M846,-122.0267C846,-142.7672 846,-174 846,-174 846,-174 2152.3116,-174 2152.3116,-174"/>
<polygon fill="#000000" stroke="#000000" points="2152.3116,-177.5001 2162.3116,-174 2152.3116,-170.5001 2152.3116,-177.5001"/>
</g>
<!-- NotificationsService -->
<g id="node25" class="node">
<title>NotificationsService</title>
<ellipse fill="#fdb462" stroke="#000000" cx="654" cy="-104" rx="90.3217" ry="18"/>
<text text-anchor="middle" x="654" y="-99.8" font-family="Times,serif" font-size="14.00" fill="#000000">NotificationsService</text>
</g>
<!-- NotificationsService&#45;&gt;NgxAdminLteModule -->
<g id="edge24" class="edge">
<title>NotificationsService&#45;&gt;NgxAdminLteModule</title>
<path fill="none" stroke="#000000" d="M654,-122.1686C654,-143.498 654,-176 654,-176 654,-176 2152.344,-176 2152.344,-176"/>
<polygon fill="#000000" stroke="#000000" points="2152.344,-179.5001 2162.344,-176 2152.3439,-172.5001 2152.344,-179.5001"/>
</g>
<!-- TranslateService -->
<g id="node26" class="node">
<title>TranslateService</title>
<ellipse fill="#fdb462" stroke="#000000" cx="470" cy="-104" rx="75.8354" ry="18"/>
<text text-anchor="middle" x="470" y="-99.8" font-family="Times,serif" font-size="14.00" fill="#000000">TranslateService</text>
</g>
<!-- TranslateService&#45;&gt;NgxAdminLteModule -->
<g id="edge25" class="edge">
<title>TranslateService&#45;&gt;NgxAdminLteModule</title>
<path fill="none" stroke="#000000" d="M470,-122.1554C470,-144.3519 470,-179 470,-179 470,-179 2152.2535,-179 2152.2535,-179"/>
<polygon fill="#000000" stroke="#000000" points="2152.2536,-182.5001 2162.2535,-179 2152.2535,-175.5001 2152.2536,-182.5001"/>
</g>
<!-- LoggerService -->
<g id="node27" class="node">
<title>LoggerService</title>
<ellipse fill="#fdb462" stroke="#000000" cx="308" cy="-104" rx="67.7567" ry="18"/>
<text text-anchor="middle" x="308" y="-99.8" font-family="Times,serif" font-size="14.00" fill="#000000">LoggerService</text>
</g>
<!-- LoggerService&#45;&gt;NgxAdminLteModule -->
<g id="edge26" class="edge">
<title>LoggerService&#45;&gt;NgxAdminLteModule</title>
<path fill="none" stroke="#000000" d="M308,-122.0908C308,-145.1328 308,-182 308,-182 308,-182 2152.2052,-182 2152.2052,-182"/>
<polygon fill="#000000" stroke="#000000" points="2152.2053,-185.5001 2162.2052,-182 2152.2052,-178.5001 2152.2053,-185.5001"/>
</g>
<!-- ControlSidebarService -->
<g id="node28" class="node">
<title>ControlSidebarService</title>
<ellipse fill="#fdb462" stroke="#000000" cx="123" cy="-104" rx="98.9936" ry="18"/>
<text text-anchor="middle" x="123" y="-99.8" font-family="Times,serif" font-size="14.00" fill="#000000">ControlSidebarService</text>
</g>
<!-- ControlSidebarService&#45;&gt;NgxAdminLteModule -->
<g id="edge27" class="edge">
<title>ControlSidebarService&#45;&gt;NgxAdminLteModule</title>
<path fill="none" stroke="#000000" d="M123,-122.3802C123,-146.2785 123,-185 123,-185 123,-185 2152.1932,-185 2152.1932,-185"/>
<polygon fill="#000000" stroke="#000000" points="2152.1932,-188.5001 2162.1932,-185 2152.1931,-181.5001 2152.1932,-188.5001"/>
</g>
</g>
</svg>
